<?xml version="1.0" encoding="utf-8"?>
<!-- Generator: Adobe Illustrator 25.3.0, SVG Export Plug-In . SVG Version: 6.00 Build 0)  -->
<svg version="1.1" id="Ebene_1" xmlns="http://www.w3.org/2000/svg" xmlns:xlink="http://www.w3.org/1999/xlink" x="0px" y="0px"
	 viewBox="0 0 8503.94 3061.42" style="enable-background:new 0 0 8503.94 3061.42;" xml:space="preserve">
<style type="text/css">
	.st0{fill:#CE5C58;}
	.st1{fill:#F1CE73;}
	.st2{fill:#FCF3DF;}
	.st3{fill:none;stroke:#FCF3DF;stroke-width:5;stroke-miterlimit:10;}
	.st4{fill:none;stroke:#F1CE73;stroke-width:5;stroke-miterlimit:10;}
</style>
<polygon class="st0" points="5505.21,482.76 5467.74,445.28 5416.32,496.7 5364.9,445.28 5327.43,482.76 5378.85,534.17 
	5327.43,585.59 5364.9,623.06 5416.32,571.64 5467.74,623.06 5505.21,585.59 5453.79,534.17 "/>
<polygon class="st0" points="8104.21,1018.43 8066.74,980.96 8015.32,1032.38 7963.9,980.96 7926.43,1018.43 7977.85,1069.85 
	7926.43,1121.27 7963.9,1158.74 8015.32,1107.32 8066.74,1158.74 8104.21,1121.27 8052.79,1069.85 "/>
<polygon class="st1" points="765.02,421.13 727.55,383.66 676.13,435.08 624.71,383.66 587.24,421.13 638.66,472.55 587.24,523.97 
	624.71,561.44 676.13,510.02 727.55,561.44 765.02,523.97 713.6,472.55 "/>
<polygon class="st0" points="3238.4,1004.09 3220.83,986.53 3196.73,1010.63 3172.63,986.53 3155.07,1004.09 3179.17,1028.19 
	3155.07,1052.29 3172.63,1069.85 3196.73,1045.75 3220.83,1069.85 3238.4,1052.29 3214.3,1028.19 "/>
<polygon class="st2" points="2945.56,1633.08 2926.83,1614.34 2901.12,1640.05 2875.41,1614.34 2856.67,1633.08 2882.38,1658.79 
	2856.67,1684.5 2875.41,1703.23 2901.12,1677.52 2926.83,1703.23 2945.56,1684.5 2919.85,1658.79 "/>
<polygon class="st1" points="4340.86,192.75 4322.12,174.01 4296.41,199.72 4270.7,174.01 4251.97,192.75 4277.68,218.46 
	4251.97,244.16 4270.7,262.9 4296.41,237.19 4322.12,262.9 4340.86,244.16 4315.15,218.46 "/>
<polygon class="st1" points="5705.44,2740.3 5686.7,2721.57 5660.99,2747.28 5635.28,2721.57 5616.55,2740.3 5642.26,2766.01 
	5616.55,2791.72 5635.28,2810.46 5660.99,2784.75 5686.7,2810.46 5705.44,2791.72 5679.73,2766.01 "/>
<circle class="st3" cx="2477.77" cy="351.79" r="47.3"/>
<circle class="st3" cx="3891.13" cy="2674.27" r="47.3"/>
<circle class="st4" cx="2223.89" cy="2802.72" r="30.05"/>
<circle class="st4" cx="6542.69" cy="399.09" r="30.05"/>
<circle class="st3" cx="8159.61" cy="2603.74" r="47.3"/>
<circle class="st3" cx="539.94" cy="1796.21" r="47.3"/>
<circle class="st3" cx="5660.99" cy="1750.53" r="47.3"/>
</svg>
