<svg xmlns="http://www.w3.org/2000/svg" xmlns:xlink="http://www.w3.org/1999/xlink" version="1.1" id="Ebene_1" x="0" y="0" viewBox="0 0 1920 1920" xml:space="preserve" enable-background="new 0 0 1920 1920">
  <style type="text/css">

	.st0{opacity:0.3;fill:#FCF3DF;}
	.st1{fill:none;stroke:#FCF3DF;stroke-width:21;stroke-linejoin:round;stroke-miterlimit:10;}

  </style>
  <path class="st0" d="M1612.54 668.57C1612.54 668.57 1612.54 668.57 1612.54 668.57c-31.48-163.64-175.4-287.27-348.22-287.27 -129.05 0-241.99 68.94-304.04 171.99C898.24 450.24 785.3 381.3 656.24 381.3c-172.82 0-316.75 123.63-348.22 287.27 0 0 0 0 0 0 -83.43 329.45 477.82 748.5 652.26 869.5C1134.72 1417.07 1695.97 998.02 1612.54 668.57z"/>
  <path class="st1" d="M1612.54 668.57C1612.54 668.57 1612.54 668.57 1612.54 668.57c-31.48-163.64-175.4-287.27-348.22-287.27 -129.05 0-241.99 68.94-304.04 171.99C898.24 450.24 785.3 381.3 656.24 381.3c-172.82 0-316.75 123.63-348.22 287.27 0 0 0 0 0 0 -83.43 329.45 477.82 748.5 652.26 869.5C1134.72 1417.07 1695.97 998.02 1612.54 668.57z"/>
</svg>
