<svg xmlns="http://www.w3.org/2000/svg" xmlns:xlink="http://www.w3.org/1999/xlink" version="1.1" id="Ebene_1" x="0" y="0" viewBox="0 0 1920 1920" xml:space="preserve" enable-background="new 0 0 1920 1920">
  <style type="text/css">

	.st0{opacity:0.3;fill:#FCF3DF;}
	.st1{fill:none;stroke:#FCF3DF;stroke-width:21;stroke-linejoin:round;stroke-miterlimit:10;}

  </style>
	<path class="st0" d="M1735.99 883.88h-87.73c-15.76-114.14-87.25-210.49-186.12-260.68 36.66-38.62 59.15-90.81 59.15-148.26 0-118.96-96.43-215.39-215.39-215.39 -118.96 0-215.39 96.43-215.39 215.39 0 57.45 22.49 109.64 59.15 148.26 -98.87 50.19-170.36 146.54-186.12 260.68h-6.55c-15.76-114.14-87.25-210.49-186.12-260.68 36.66-38.62 59.15-90.81 59.15-148.26 0-118.96-96.43-215.39-215.39-215.39 -118.96 0-215.39 96.43-215.39 215.39 0 57.45 22.49 109.64 59.15 148.26 -98.87 50.19-170.36 146.54-186.12 260.68h-87.73c-55.87 0-101.16 45.29-101.16 101.16v574.98c0 55.87 45.29 101.16 101.16 101.16h1551.45c55.87 0 101.16-45.29 101.16-101.16V985.04C1837.15 929.17 1791.86 883.88 1735.99 883.88z"/>
	<path class="st1" d="M1735.99 883.88h-87.73c-15.76-114.14-87.25-210.49-186.12-260.68 36.66-38.62 59.15-90.81 59.15-148.26 0-118.96-96.43-215.39-215.39-215.39 -118.96 0-215.39 96.43-215.39 215.39 0 57.45 22.49 109.64 59.15 148.26 -98.87 50.19-170.36 146.54-186.12 260.68h-6.55c-15.76-114.14-87.25-210.49-186.12-260.68 36.66-38.62 59.15-90.81 59.15-148.26 0-118.96-96.43-215.39-215.39-215.39 -118.96 0-215.39 96.43-215.39 215.39 0 57.45 22.49 109.64 59.15 148.26 -98.87 50.19-170.36 146.54-186.12 260.68h-87.73c-55.87 0-101.16 45.29-101.16 101.16v574.98c0 55.87 45.29 101.16 101.16 101.16h1551.45c55.87 0 101.16-45.29 101.16-101.16V985.04C1837.15 929.17 1791.86 883.88 1735.99 883.88z"/>
</svg>
